<svg data-name="Layer 1" xmlns="http://www.w3.org/2000/svg" width="1034" height="823.843" viewBox="0 0 1034 823.843"><circle cx="775.703" cy="59.262" r="33.293" fill="#2f2e41"/><path d="M752.176 79.576s-4.816 60.643-10.595 60.643S809 137.366 809 137.366s-30.82-39.953-15.41-52.795-41.414-4.995-41.414-4.995z" fill="#9f616a"/><path d="M752.176 79.576s-4.816 60.643-10.595 60.643S809 137.366 809 137.366s-30.82-39.953-15.41-52.795-41.414-4.995-41.414-4.995z" opacity=".1"/><path d="M617.5 776.887a289.501 289.501 0 11204.707-84.793A287.604 287.604 0 01617.5 776.887zm0-576c-157.977 0-286.5 128.523-286.5 286.5s128.523 286.5 286.5 286.5S904 645.363 904 487.387s-128.523-286.5-286.5-286.5z" fill="#3f3d56"/><path d="M838.653 212.257L805 221.887l47.007-2.144a41.39 41.39 0 0129.02 9.764c8.376 7.25 15.126 18.75 8.626 35.75-13 34-33 66-33 66l-13 25s-27 4-28-4 0-12 5-16 8-12 8-16-1-8 2-10 4-5 4-11S852 266.887 852 266.887s-36.347-12.63-52-2-47.347 57.37-47.347 57.37a30.091 30.091 0 00-5.167 7.342 25.95 25.95 0 01-6.537 8.13c-2.908 2.555-.23 9.594.704 10.528 1 1 11 41 11 41s11 19-1 20-23 2-24 0a54.362 54.362 0 00-4-8c-3-5 0-16 0-16s-29-37-20-60 28-75 28-75l29-12 53-19z" fill="#2f2e41"/><path d="M636.653 104.257l-41-8s-10-34-22-30 8 38 8 38l57 26zm249 34l18 23s26-1 18 13-26 6-27 3-30-29-30-29z" fill="#a0616a"/><path d="M792 107.887l-26 20-16-24-124-7v41c30.516-8.812 58.605-11.541 81 0 28.346 37.744 34.583 78.731 16.653 123.263L870 209.887c-43.863-16.334-64.224-40.012-58-72l51 18 31-23c-27.722-18.654-68.978-30.354-102-25z" fill="#005581"/><ellipse cx="517" cy="784.843" rx="517" ry="39" fill="#3f3d56"/><ellipse cx="372.5" cy="783.843" rx="349.5" ry="26" opacity=".1"/><path d="M935.162 731.905c-3.331 29.19 14.614 55.21 14.614 55.21s23.347-21.307 26.678-50.497-14.615-55.21-14.615-55.21-23.346 21.307-26.677 50.497z" fill="#2f2e41"/><path d="M947.889 730.4c12.007 26.813 2.775 57.043 2.775 57.043s-28.699-13.244-40.706-40.059-2.776-57.043-2.776-57.043 28.7 13.244 40.707 40.058z" fill="#005581"/><circle cx="625.559" cy="671.249" r="112.056" fill="#f2f2f2"/><path d="M625.559 498.495l-27.605 69.011-99.819.8-32.518.263-77.17.621-32.504.263-77.169.62-32.504.263-77.17.635-32.504.262-52.09.414-10.076-20.62-13.07-26.708-7.22-14.783L50 498.495l24.775-78.467a37.827 37.827 0 0136.066-26.431h450.757a37.835 37.835 0 0135.624 25.147l2.871 8.089z" fill="#005581"/><path fill="#005581" d="M50 498.496h575.559v144.925H50z"/><path opacity=".1" d="M50 498.496h575.559v144.925H50z"/><path fill="#3f3d56" d="M617.07 299.428h16.978v16.978H617.07zm45.841 363.332h16.978v16.978h-16.978z"/><path fill="#f2f2f2" d="M152.828 311.473h368.523v463.759H152.828z"/><path fill="#3f3d56" d="M230.121 344.598h107.658v15.183H230.121z"/><path fill="#e6e6e6" d="M173.531 406.709h324.356v6.901H173.531zm0 22.084h324.356v6.901H173.531zm0 22.083h324.356v6.901H173.531zm0 22.084h324.356v6.901H173.531zm0 22.084h324.356v6.901H173.531zm0 22.084h324.356v6.901H173.531z"/><path d="M187.334 372.203a23.464 23.464 0 1123.464-23.464 23.49 23.49 0 01-23.464 23.464zm0-44.168a20.704 20.704 0 1020.703 20.704 20.727 20.727 0 00-20.703-20.704z" fill="#005581"/><path fill="#3f3d56" d="M625.559 786.964H50V498.495l74.533 57.97 429.253-2.761 71.773-55.209v288.469z"/><path fill="#f2f2f2" d="M79.675 720.023h107.658v15.183H79.675z"/><path d="M136.172 691.513a12 12 0 1112-12 12.014 12.014 0 01-12 12zm0-22a10 10 0 1010 10 10.011 10.011 0 00-10-10z" fill="#fff"/><path d="M840.653 351.257s6 23 8 24 24 20 9 23-26 2-29-1-2-6-7-7-14-4-13-11 6-26 9-28 23 0 23 0zm-87 51s9 7 4 20-12 27-12 27-8 25-21 21c-5.282-1.625-7.922-6.056-9.196-10.744a25.696 25.696 0 013.632-20.91l7.564-11.346 8-21z" fill="#2f2e41"/><path d="M731.704 499.072c17.926 0 40.105-5.938 61.718-27.402 52.91-52.549 103.177-57.82 103.678-57.866l-.186-1.992c-.509.048-51.488 5.39-104.902 58.438-27.446 27.259-55.775 28.929-74.707 25.528a93.363 93.363 0 01-34.999-14.106l-1.182 1.613a95.445 95.445 0 0035.749 14.447 83.498 83.498 0 0014.831 1.34z" fill="#2f2e41"/><circle cx="870.153" cy="443.757" r="12" fill="#2f2e41"/><circle cx="785.153" cy="499.757" r="12" fill="#2f2e41"/><circle cx="773.006" cy="78.116" r="23.996" fill="#a0616a"/><path d="M793.082 0a18.199 18.199 0 01-10.501 7.219c-7.343 1.966-.06 13-.06 13s-2.649-4.012 1.171-8.261S793.66 4.803 793.082 0z" fill="#2f2e41"/><circle cx="781.219" cy="22.867" r="9.278" fill="#2f2e41"/><path d="M793.066 30.643c-7.564-2.86-20.16-4.311-26.639-3.32l.889-6.488c6.23 3.219 18.766 4.732 26.638 3.32z" fill="#3f3d56"/><path d="M776.43 37.966s-9.48 15.768-31.524 21.67-.18 39.029-.18 39.029-7.95-12.046 3.517-24.802 29.921-21.478 28.186-35.897z" fill="#2f2e41"/><path d="M777.182 37.008s9.107 21.658 19.104 23.706 9.24 36.269-6.395 41.4c0 0 11.4-20.062 1.656-33.516s-15.901-24.092-14.365-31.59z" fill="#2f2e41"/></svg>