<svg data-name="Layer 1" xmlns="http://www.w3.org/2000/svg" width="875.65" height="740.082" viewBox="0 0 875.65 740.082"><path fill="#2f2e41" d="M424.825 111.041h75v95h-75z"/><path d="M500.825 114.04c-6.716 19.884-17.013 38-38 38s-36.818-17.046-38-37.999c-1.511-26.774 16.529-38.11 38-38 25.364.131 45.97 14.403 38 38z" fill="#2f2e41"/><path d="M481.5 143.582s-6 36-3 37-34 5-34 5 11-27 8-32 29-10 29-10z" fill="#ffb8b8"/><path d="M481.5 143.582s-6 36-3 37-34 5-34 5 11-27 8-32 29-10 29-10z" opacity=".1"/><path d="M555.917 273.084L572.44 286.2s-13.657-69.184-14.04-74.269-13.227-39.913-26.984-34.552 9.761 43.517 9.761 43.517l15.366 55.289z" fill="#ffb8b8"/><circle cx="460.5" cy="133.582" r="29" fill="#ffb8b8"/><path d="M460.5 175.582l-13-6s-7 13-11 13-38 7-38 14 10 57 10 57 20 48 21 48 72-9 72-9l4-11 6-65s-24-16-24-21-2-22-6-22-11 6-11 6z" fill="#d0cde1"/><path d="M502.5 220.582l9-4s7 13 9 14 5 6 5 8 6 18 11 19 13 5 12 8a6.925 6.925 0 000 5l4-5 21 16s11 34-5 33-30-9-37-13-7-2-11-8-21-17-21-17z" fill="#d0cde1"/><path d="M429.5 292.582l-8 4 2 15s-111 393-95 396 61 11 85 17 58 7 58 0 10-256 10-256 3 264 12 264 83 16 88 0-24-376-60-418c0 0-18-23-17-26s-1-7-1-7 1-2-10 1-16 3-19 2-8-5-11-2-12 8-16 7-6-7-10-3a34.53 34.53 0 01-8 6z" fill="#2f2e41"/><path d="M334.5 704.582s-6 32 0 33 36 3 37 1-7-30-10-32-27-2-27-2zm207 4s6 28 0 29-36 3-37 1 7-26 10-28 27-2 27-2z" fill="#2f2e41"/><path d="M341 277.082s41 11 51 13 21 12 22 16 10 22 17 18 0-38-5-39-66-18-66-18z" fill="#ffb8b8"/><path d="M409.5 194.582h-11l-64 48s-15 4-14 7-15 21-5 25 18 5 22 8 29-14 29-14l-4-3s46-16 50-14-3-57-3-57z" fill="#d0cde1"/><path fill="#005581" d="M439 179.082l24 15-2 54 7-13 4 13v-54h17l-1-9-20 3-26-14-3 5z"/><path d="M445.049 94.04s-.33-1.834-13.224 3-20.623 40.519-14.176 61.472c2.598 8.444.484 14.532-2.965 18.791-12.945 15.985-7.85 39.994 11.006 48.215q.798.348 1.63.688l8.058 4.835s-10.273-13.518-5.132-30.809a88.654 88.654 0 001.6-45.385c-.59-2.532-1.26-5.142-2.021-7.806-6.447-22.565-3.312-19.959 19.253-42.524 0 0 12.894 9.671 24.176 14.506s20.953 9.67 12.895 25.789-27.4 30.623-14.506 51.576 14.506 12.894 12.894 20.953l-1.612 8.059 9.67-9.67-6.446 12.893s20.952 0 27.4-16.117l3.223 3.223s12.894-22.565-11.282-43.517c0 0-8.06-4.836 3.223-20.953s2.618-50.771-11.888-57.218-51.776 0-51.776 0z" fill="#2f2e41"/><circle cx="462.825" cy="69.041" r="15" fill="#2f2e41"/><path d="M444.825 61.04a15 15 0 0113.5-14.923 15.171 15.171 0 00-1.5-.076 15 15 0 000 30c.506 0 1.006-.027 1.5-.076a15 15 0 01-13.5-14.924z" fill="#2f2e41"/><ellipse cx="489.825" cy="130.041" rx="2" ry="4" fill="#ffb8b8"/><path d="M141.24 674.36c6.707 24.79 29.678 40.144 29.678 40.144s12.098-24.84 5.391-49.631-29.677-40.144-29.677-40.144-12.097 24.84-5.391 49.63z" fill="#3f3d56"/><path d="M151.095 669.032c18.403 17.914 20.65 45.452 20.65 45.452s-27.588-1.507-45.99-19.42-20.65-45.452-20.65-45.452 27.588 1.506 45.99 19.42z" fill="#005581"/><path fill="#2f2e41" d="M123.131 738.082h648v2h-648z"/><path d="M180 739.082h-26v-26h26zm-24-2h22v-22h-22z" fill="#3f3d56"/><path fill="#f2f2f2" d="M220.505 483.082H0v-136h251v95.33"/><path d="M232.505 473.082H11v-138h253v96.33h-2v-94.33H13v134h219.505v2zm90.348.5H263v-2h52.147l-52.133-29.018.972-1.747 58.867 32.765z"/><path d="M40 383.082h195v2H40zm0 20h195v2H40zm0 20h195v2H40z"/><circle cx="318.985" cy="472.224" r="8.209" fill="#005581"/><path d="M158.068 323.914l-4.107-1.344c-14.657-4.942-24.287-8.098-27.717-15.83a12.033 12.033 0 016.159-16.125 13.089 13.089 0 0110.997.235 13.088 13.088 0 017.205-8.31 12.033 12.033 0 0116.088 6.256c3.43 7.731-.693 16.988-6.866 31.171z" fill="#ff6584"/><path fill="#f2f2f2" d="M188 119.851h93.284v64.179H188z"/><path d="M289 178.313h-95.284v-66.179H289zm-93.284-2H287v-62.179h-91.284z"/><path d="M240.98 146.437l-46.834-32.481 1.14-1.644 45.703 31.698 46.447-31.702 1.128 1.652-47.584 32.477z"/><circle cx="240.985" cy="145.224" r="8.209" fill="#005581"/><path d="M227.803 97.625l-2.795-.915c-9.977-3.364-16.532-5.512-18.866-10.774a8.19 8.19 0 014.192-10.977 8.91 8.91 0 017.485.16 8.909 8.909 0 014.904-5.656 8.19 8.19 0 0110.951 4.258c2.335 5.263-.471 11.564-4.673 21.218z" fill="#ff6584"/><path fill="#f2f2f2" d="M671 447.851h93.284v64.179H671z"/><path fill="#005581" d="M741 455.082h20v6h-20z"/><path fill="#fff" d="M715 472.082h46v4h-46zm-21 8h67v4h-67zm0 8h67v4h-67z"/><path d="M736.394 436.187l-.922-1.906c-3.239-6.852-5.399-11.323-3.837-15.162a5.896 5.896 0 017.784-3.308 6.413 6.413 0 013.655 3.96 6.413 6.413 0 015.382-.283 5.896 5.896 0 013.262 7.804c-1.562 3.838-6.23 5.53-13.333 8.174z" fill="#ff6584"/><path fill="#f2f2f2" d="M649.495 209.082H870v-136H619v95.33"/><path d="M859 199.082H637.495v-2H857v-134H608v94.33h-2v-96.33h253v138zm-252 .5h-59.853l58.867-32.765.972 1.747-52.133 29.018H607v2z"/><path d="M635 109.082h195v2H635zm0 20h195v2H635zm0 20h195v2H635z"/><circle cx="550.985" cy="198.224" r="8.209" fill="#005581"/><path d="M844.113 34.26l-.628-3.56c-2.135-12.759-3.604-21.105.746-26.684A10.063 10.063 0 01858.553 2.2a10.947 10.947 0 014.162 8.204 10.946 10.946 0 018.971 2.037 10.063 10.063 0 011.73 14.333c-4.35 5.578-12.804 6.188-25.698 7.227z" fill="#ff6584"/></svg>